<mxfile host="app.diagrams.net" modified="2023-04-13T14:20:28.911Z" agent="Mozilla/5.0 (Windows NT 10.0; Win64; x64) AppleWebKit/537.36 (KHTML, like Gecko) Chrome/112.0.0.0 Safari/537.36" etag="BxfuOtiIBiI82AMoMvYp" version="21.1.5" type="github">
  <diagram name="Page-1" id="GMlJ-6j5ENdUGKHWMFd1">
    <mxGraphModel dx="1450" dy="605" grid="0" gridSize="10" guides="1" tooltips="1" connect="1" arrows="1" fold="1" page="0" pageScale="1" pageWidth="827" pageHeight="1169" math="0" shadow="0">
      <root>
        <mxCell id="0" />
        <mxCell id="1" parent="0" />
        <mxCell id="s9nXba7NK2cvar8Kw1fk-3" value="&lt;b&gt;&lt;font style=&quot;font-size: 14px;&quot;&gt;Module&lt;/font&gt;&lt;br&gt;&lt;br&gt;&lt;br&gt;&lt;br&gt;&lt;br&gt;&lt;br&gt;&lt;br&gt;&lt;br&gt;&lt;br&gt;&lt;/b&gt;" style="rounded=1;whiteSpace=wrap;html=1;fillColor=#f5f5f5;strokeColor=#666666;fontColor=#333333;" vertex="1" parent="1">
          <mxGeometry x="128" y="307" width="470" height="170" as="geometry" />
        </mxCell>
        <mxCell id="s9nXba7NK2cvar8Kw1fk-8" style="rounded=0;orthogonalLoop=1;jettySize=auto;html=1;exitX=1;exitY=0.25;exitDx=0;exitDy=0;entryX=0;entryY=0.25;entryDx=0;entryDy=0;fillColor=#dae8fc;strokeColor=#6c8ebf;" edge="1" parent="1">
          <mxGeometry relative="1" as="geometry">
            <mxPoint x="272" y="368.125" as="sourcePoint" />
            <mxPoint x="454" y="366.625" as="targetPoint" />
          </mxGeometry>
        </mxCell>
        <mxCell id="s9nXba7NK2cvar8Kw1fk-10" value="&amp;nbsp;Event Binding&amp;nbsp;" style="edgeLabel;html=1;align=center;verticalAlign=middle;resizable=0;points=[];labelBackgroundColor=#f5f5f5;fontColor=#7EA6E0;fontStyle=3" vertex="1" connectable="0" parent="s9nXba7NK2cvar8Kw1fk-8">
          <mxGeometry x="-0.1868" y="-2" relative="1" as="geometry">
            <mxPoint x="17" y="-2" as="offset" />
          </mxGeometry>
        </mxCell>
        <mxCell id="s9nXba7NK2cvar8Kw1fk-5" value="Template" style="rounded=1;whiteSpace=wrap;html=1;fillColor=#dae8fc;strokeColor=#6c8ebf;" vertex="1" parent="1">
          <mxGeometry x="152" y="355" width="120" height="80.5" as="geometry" />
        </mxCell>
        <mxCell id="s9nXba7NK2cvar8Kw1fk-9" style="rounded=0;orthogonalLoop=1;jettySize=auto;html=1;exitX=0;exitY=0.75;exitDx=0;exitDy=0;entryX=1;entryY=0.75;entryDx=0;entryDy=0;fillColor=#d5e8d4;strokeColor=#82b366;" edge="1" parent="1">
          <mxGeometry relative="1" as="geometry">
            <mxPoint x="454" y="422.875" as="sourcePoint" />
            <mxPoint x="272" y="423.375" as="targetPoint" />
          </mxGeometry>
        </mxCell>
        <mxCell id="s9nXba7NK2cvar8Kw1fk-11" value="&amp;nbsp;Property Binding&amp;nbsp;" style="edgeLabel;html=1;align=center;verticalAlign=middle;resizable=0;points=[];labelBackgroundColor=#f5f5f5;fontColor=#97D077;fontStyle=3" vertex="1" connectable="0" parent="s9nXba7NK2cvar8Kw1fk-9">
          <mxGeometry x="-0.0989" y="2" relative="1" as="geometry">
            <mxPoint x="-9" y="-3" as="offset" />
          </mxGeometry>
        </mxCell>
        <mxCell id="s9nXba7NK2cvar8Kw1fk-6" value="Component" style="rounded=1;whiteSpace=wrap;html=1;fillColor=#d5e8d4;strokeColor=#82b366;" vertex="1" parent="1">
          <mxGeometry x="454" y="353" width="120" height="82.5" as="geometry" />
        </mxCell>
        <mxCell id="s9nXba7NK2cvar8Kw1fk-14" style="edgeStyle=orthogonalEdgeStyle;rounded=0;orthogonalLoop=1;jettySize=auto;html=1;fillColor=#e1d5e7;strokeColor=#9673a6;" edge="1" parent="1" source="s9nXba7NK2cvar8Kw1fk-13" target="s9nXba7NK2cvar8Kw1fk-5">
          <mxGeometry relative="1" as="geometry" />
        </mxCell>
        <mxCell id="s9nXba7NK2cvar8Kw1fk-13" value="Directive" style="ellipse;whiteSpace=wrap;html=1;aspect=fixed;fillColor=#e1d5e7;strokeColor=#9673a6;" vertex="1" parent="1">
          <mxGeometry x="-2" y="355.5" width="80" height="80" as="geometry" />
        </mxCell>
        <mxCell id="s9nXba7NK2cvar8Kw1fk-16" style="edgeStyle=orthogonalEdgeStyle;rounded=0;orthogonalLoop=1;jettySize=auto;html=1;fillColor=#f8cecc;strokeColor=#b85450;" edge="1" parent="1" source="s9nXba7NK2cvar8Kw1fk-15" target="s9nXba7NK2cvar8Kw1fk-6">
          <mxGeometry relative="1" as="geometry" />
        </mxCell>
        <mxCell id="s9nXba7NK2cvar8Kw1fk-17" value="&amp;nbsp;Injector&amp;nbsp;&amp;nbsp;" style="edgeLabel;html=1;align=center;verticalAlign=middle;resizable=0;points=[];fontStyle=3;fontColor=#bf6662;" vertex="1" connectable="0" parent="s9nXba7NK2cvar8Kw1fk-16">
          <mxGeometry x="0.28" y="-1" relative="1" as="geometry">
            <mxPoint x="21" y="1" as="offset" />
          </mxGeometry>
        </mxCell>
        <mxCell id="s9nXba7NK2cvar8Kw1fk-15" value="Service" style="rounded=0;whiteSpace=wrap;html=1;fillColor=#f8cecc;strokeColor=#b85450;" vertex="1" parent="1">
          <mxGeometry x="676" y="362.75" width="125" height="63" as="geometry" />
        </mxCell>
        <mxCell id="s9nXba7NK2cvar8Kw1fk-21" value="MetaData" style="ellipse;whiteSpace=wrap;html=1;fillColor=#fff2cc;strokeColor=#d6b656;" vertex="1" parent="1">
          <mxGeometry x="303" y="379.13" width="120" height="30.25" as="geometry" />
        </mxCell>
      </root>
    </mxGraphModel>
  </diagram>
</mxfile>
